<?xml version="1.0" standalone="no"?>
<!DOCTYPE svg PUBLIC "-//W3C//DTD SVG 20010904//EN"
 "http://www.w3.org/TR/2001/REC-SVG-20010904/DTD/svg10.dtd">
<svg version="1.0" xmlns="http://www.w3.org/2000/svg"
 width="1024.000000pt" height="1024.000000pt" viewBox="0 0 1024.000000 1024.000000"
 preserveAspectRatio="xMidYMid meet">
<metadata>
Created by potrace 1.16, written by Peter Selinger 2001-2019
</metadata>
<g transform="translate(0.000000,1024.000000) scale(0.100000,-0.100000)"
fill="#000000" stroke="none">
<path d="M0 5120 l0 -5120 5120 0 5120 0 0 5120 0 5120 -5120 0 -5120 0 0
-5120z m5568 4195 c43 -28 62 -39 159 -92 32 -17 80 -47 108 -67 27 -20 53
-36 56 -36 4 0 36 -17 71 -39 34 -21 92 -53 128 -71 36 -18 67 -36 68 -41 2
-5 11 -9 21 -9 9 0 28 -8 41 -17 30 -22 70 -44 130 -73 25 -12 59 -33 77 -46
17 -13 37 -24 43 -24 7 0 23 -9 37 -20 14 -11 31 -20 38 -20 7 0 18 -7 25 -15
7 -9 29 -23 49 -32 20 -9 55 -29 78 -45 23 -15 46 -28 52 -28 5 0 47 -23 93
-52 46 -28 100 -61 120 -73 l37 -21 -402 -203 c-221 -111 -452 -228 -514 -259
-61 -31 -122 -62 -135 -68 -20 -11 -316 -165 -454 -238 -28 -14 -58 -24 -67
-21 -15 7 -148 203 -214 320 -21 36 -56 97 -78 135 -101 175 -206 373 -201
378 3 3 6 1 6 -5 0 -6 8 -13 18 -16 9 -3 62 -35 117 -71 100 -66 154 -97 340
-195 55 -29 107 -59 115 -66 16 -13 270 -156 330 -186 78 -38 113 -33 42 7
-20 12 -77 45 -127 74 -49 30 -140 81 -201 115 -62 35 -138 78 -170 98 -100
60 -346 201 -406 232 -32 17 -58 33 -58 37 0 6 55 161 198 557 l27 74 25 -33
c107 -139 277 -333 245 -280 -17 28 -78 105 -154 195 -42 50 -82 97 -89 106
-10 14 -5 19 36 40 26 13 49 26 52 30 10 11 118 69 129 69 7 0 20 7 29 16 22
22 78 13 130 -21z m-816 -509 c10 -11 18 -25 18 -32 0 -6 32 -54 71 -105 39
-52 59 -82 44 -68 -39 38 -205 272 -205 289 0 8 12 -3 27 -25 15 -22 35 -49
45 -59z m-226 7 c-2 -21 -4 -50 -5 -65 -1 -21 -6 -28 -21 -28 -17 0 -20 -7
-20 -40 0 -29 4 -40 15 -40 11 0 15 -11 15 -40 0 -29 -4 -40 -15 -40 -20 0
-20 -65 1 -105 8 -16 13 -37 11 -47 -3 -10 -1 -21 4 -24 5 -3 9 -13 9 -23 0
-21 -47 -37 -142 -50 -71 -9 -79 -2 -133 114 -88 187 -105 225 -105 230 0 7
120 62 154 69 15 4 26 10 23 13 -7 6 25 33 62 53 13 6 42 13 65 14 32 1 40 5
38 18 -2 10 6 18 20 21 13 2 24 5 25 6 1 0 1 -16 -1 -36z m338 -101 c3 -5 -1
-9 -9 -9 -8 0 -12 4 -9 9 3 4 7 8 9 8 2 0 6 -4 9 -8z m-751 -82 c-3 -12 -8
-19 -11 -16 -5 6 5 36 12 36 2 0 2 -9 -1 -20z m-113 -70 c0 -5 -4 -10 -10 -10
-5 0 -10 5 -10 10 0 6 5 10 10 10 6 0 10 -4 10 -10z m-10 -31 c11 -7 4 -8 -24
-3 -28 5 -37 4 -32 -5 4 -6 14 -11 22 -11 8 0 14 -4 14 -10 0 -13 -2 -13 -52
7 -35 14 -38 18 -22 24 28 11 77 10 94 -2z m10 -39 c0 -5 -2 -10 -4 -10 -3 0
-8 5 -11 10 -3 6 -1 10 4 10 6 0 11 -4 11 -10z m30 -20 c-8 -5 -19 -10 -25
-10 -5 0 -3 5 5 10 8 5 20 10 25 10 6 0 3 -5 -5 -10z m2837 -358 c-10 -10 -15
-21 -12 -24 3 -3 -2 -11 -12 -19 -15 -12 -16 -12 -10 3 4 12 2 15 -8 12 -7 -3
-16 -17 -20 -32 -3 -15 -26 -52 -51 -84 -24 -31 -44 -63 -44 -70 0 -20 -20
-37 -36 -31 -8 3 -16 -1 -19 -8 -4 -11 -33 -13 -134 -11 l-129 3 5 -23 c4 -21
3 -22 -10 -5 -17 21 -52 22 -90 2 -15 -8 -25 -10 -22 -5 10 17 179 101 192 95
8 -2 11 0 8 5 -5 8 375 208 399 209 5 1 2 -7 -7 -17z m-3826 -33 c11 -5 16
-15 13 -21 -5 -8 -1 -9 12 -4 15 6 17 5 7 -5 -10 -10 -16 -10 -25 -1 -7 7 -8
12 -2 12 5 1 -2 7 -16 15 -29 16 -19 20 11 4z m-71 -44 c0 -8 5 -15 11 -17 13
-4 39 -100 39 -145 0 -18 5 -33 10 -33 6 0 10 18 10 40 0 28 4 40 14 40 11 0
13 -9 9 -37 -3 -21 -10 -43 -15 -49 -5 -7 -6 -36 -4 -66 4 -44 -1 -71 -24
-138 -17 -46 -29 -85 -27 -87 3 -2 31 51 63 119 32 67 82 168 109 224 l51 102
72 -40 c40 -22 72 -44 72 -50 0 -6 -7 -7 -16 -4 -9 3 -12 2 -8 -5 3 -6 -5 -22
-17 -36 -23 -25 -23 -25 -2 -14 12 6 31 23 42 37 l20 26 98 -55 c54 -30 166
-91 248 -134 83 -44 296 -160 475 -258 179 -97 331 -181 339 -185 8 -4 -96
-62 -290 -160 -167 -84 -360 -183 -429 -220 -141 -76 -405 -210 -413 -210 -16
0 108 369 183 545 78 183 151 387 144 408 -4 12 -2 17 4 13 5 -3 12 3 15 14 6
24 5 24 -56 5 -70 -21 -638 -135 -692 -139 -17 -1 -22 9 -33 59 -7 33 -20 82
-28 109 -7 26 -14 67 -14 90 0 32 -3 38 -11 26 -8 -12 -9 -8 -5 15 3 17 -2 65
-11 107 -14 65 -14 82 -3 103 20 37 70 37 70 0z m4909 22 c16 -20 147 -82 226
-107 22 -7 58 -25 80 -40 22 -15 67 -41 100 -59 32 -18 71 -41 85 -50 14 -10
60 -35 103 -56 42 -21 82 -44 88 -52 6 -7 22 -13 34 -13 12 0 28 -7 35 -15 7
-8 24 -21 39 -28 71 -37 180 -96 216 -117 22 -12 74 -41 115 -62 41 -22 80
-43 85 -48 6 -4 48 -27 95 -51 47 -24 114 -62 150 -84 36 -23 73 -44 83 -48
10 -4 17 -17 17 -31 0 -21 -107 -236 -260 -521 -65 -123 -177 -311 -242 -408
-42 -62 -59 -72 -193 -112 -44 -13 -182 -58 -308 -101 -209 -71 -267 -84 -225
-51 9 6 49 53 89 102 119 146 268 307 279 300 4 -3 7 1 6 8 -1 12 73 97 226
261 32 34 58 58 58 54 0 -8 -65 -84 -127 -150 -19 -20 -32 -42 -28 -47 3 -7 0
-8 -9 -5 -9 3 -16 2 -16 -3 0 -13 -47 -63 -53 -57 -2 3 -7 -2 -10 -10 -4 -9
-1 -15 5 -13 15 3 20 -15 8 -33 -8 -12 -11 -13 -22 -2 -11 11 -10 13 1 10 7
-2 16 3 18 10 4 11 1 12 -16 3 -17 -10 -21 -21 -21 -62 0 -43 -3 -50 -17 -47
-10 2 -18 11 -18 20 0 9 -4 20 -9 25 -5 4 -6 3 -2 -4 4 -7 3 -13 -3 -13 -5 0
-4 -12 5 -27 7 -16 14 -34 14 -42 0 -11 14 -12 68 -7 37 3 93 2 125 -2 31 -5
57 -5 57 0 0 4 5 8 10 8 6 0 10 -12 10 -26 0 -19 4 -25 14 -21 8 3 17 1 20 -6
2 -7 5 20 6 58 4 176 8 266 16 345 4 47 8 100 8 119 -1 30 1 32 13 15 7 -10
13 -25 13 -34 0 -9 11 -31 25 -50 13 -18 22 -38 18 -43 -3 -6 -1 -7 5 -3 14 8
-1 50 -42 114 -24 38 -135 132 -156 132 -5 0 -100 -46 -212 -103 -112 -57
-230 -115 -263 -130 -113 -50 -300 -155 -300 -168 0 -7 -7 -14 -15 -16 -13 -4
-13 -3 0 6 31 22 -9 10 -51 -15 -24 -14 -35 -23 -24 -19 40 14 59 15 30 1 -16
-8 -39 -12 -51 -10 -12 3 -28 -2 -38 -11 -9 -9 -16 -12 -16 -6 0 6 -5 11 -11
11 -11 0 -123 55 -319 157 -47 25 -94 53 -106 64 -17 16 -428 239 -441 239 -2
0 -54 29 -116 63 -61 35 -186 101 -277 146 -90 45 -169 86 -175 91 -5 4 -22
11 -38 15 -17 5 -27 14 -27 26 0 10 -8 23 -17 28 -17 10 -17 10 -1 11 9 0 20
4 23 10 4 6 -1 7 -12 4 -14 -4 -15 -4 -4 4 7 5 33 9 57 7 24 -1 41 2 38 6 -7
12 3 11 29 -2 20 -9 20 -9 5 4 -22 17 -23 27 -3 27 8 0 15 -4 15 -10 0 -5 5
-10 11 -10 8 0 8 5 -1 15 -17 20 -33 19 -55 -5 -10 -11 -23 -20 -28 -20 -5 0
2 11 17 25 15 14 38 25 52 25 14 0 23 5 21 12 -1 9 13 12 52 9 37 -2 51 0 47
8 -9 14 -4 14 29 1 17 -7 24 -7 20 0 -3 6 -13 10 -21 10 -8 0 -14 5 -14 10 0
6 13 10 30 10 24 0 28 3 23 18 -5 13 -1 12 16 -5 12 -13 33 -23 46 -23 14 0
26 -7 29 -17 2 -10 2 5 -1 32 -3 28 -10 55 -15 62 -9 12 -6 15 25 26 11 4 16
3 12 -3 -3 -6 1 -10 10 -10 11 0 15 5 12 14 -7 17 55 42 74 30 8 -4 9 -3 5 4
-4 7 -1 12 8 12 8 0 17 -6 20 -12 3 -7 3 -3 0 9 -4 17 1 25 23 36 15 7 37 12
48 10 16 -3 17 -2 5 6 -18 13 -10 14 53 11 20 -1 38 3 39 9 0 6 1 17 2 24 1
17 17 27 44 27 16 0 21 4 16 13 -5 7 0 6 11 -3 14 -11 19 -12 22 -2 3 6 11 12
19 12 8 0 14 5 14 10 0 6 1 13 1 18 2 10 72 48 364 197 143 73 274 140 290
149 36 19 40 20 54 3z m-4804 -47 c13 -6 15 -9 5 -9 -8 0 -22 4 -30 9 -18 12
-2 12 25 0z m-195 -20 c0 -5 -7 -10 -15 -10 -8 0 -15 -5 -15 -11 0 -5 -5 -7
-10 -4 -6 4 -5 -4 1 -19 9 -19 9 -32 -1 -56 -7 -16 -16 -30 -21 -30 -5 0 -6
-12 -3 -26 10 -39 53 -124 63 -124 5 0 12 -12 15 -26 8 -32 51 -96 58 -88 3 3
6 -5 5 -18 0 -13 2 -29 4 -37 2 -9 -6 -17 -21 -22 -14 -4 -19 -7 -12 -8 6 -1
12 -4 12 -8 0 -10 -95 -78 -171 -123 -32 -19 -96 -60 -141 -91 -46 -31 -116
-77 -155 -103 -68 -44 -90 -62 -60 -51 6 3 53 -4 102 -15 50 -11 115 -25 145
-30 87 -16 140 -32 135 -40 -3 -4 30 -8 73 -9 42 0 100 -7 127 -15 46 -12 50
-15 48 -42 -3 -28 -2 -28 9 -6 6 12 18 22 26 22 16 0 -26 -62 -63 -91 -11 -9
-30 -25 -41 -35 -12 -11 -44 -37 -70 -59 -26 -22 -64 -54 -84 -71 -67 -60
-163 -134 -173 -134 -5 0 -7 -7 -4 -15 5 -12 2 -12 -18 -3 -13 6 -22 15 -18
21 3 6 1 7 -5 3 -6 -4 -22 0 -34 7 -13 8 -102 55 -198 105 -235 120 -231 118
-224 125 4 3 24 -5 45 -19 21 -13 45 -24 53 -24 8 0 16 -5 18 -11 2 -6 13 -12
23 -14 54 -5 105 -19 105 -27 0 -5 -10 -6 -22 -3 -13 4 2 -9 32 -28 38 -24 59
-31 68 -24 11 9 16 3 13 -15 -1 -10 3 -10 23 -2 15 6 15 8 -1 21 -16 13 -16
13 5 3 22 -11 30 -30 12 -30 -5 0 -10 -5 -10 -11 0 -6 9 -8 23 -4 17 5 19 4 7
-4 -12 -9 -11 -11 7 -11 12 0 23 -6 26 -12 2 -7 7 -10 11 -6 4 3 3 14 -3 25
-5 10 -16 34 -24 53 -8 19 -28 69 -44 110 -17 41 -46 113 -64 160 -18 47 -41
102 -51 124 -20 39 -68 371 -68 468 0 42 44 175 64 195 4 4 4 0 0 -10 -3 -10
-1 -17 6 -17 6 0 8 -5 4 -11 -4 -8 0 -9 15 -4 23 7 28 -4 9 -23 -7 -7 -8 -12
-4 -12 9 0 82 58 120 94 12 12 43 39 70 61 27 22 59 49 70 60 41 40 97 68 109
56 18 -18 27 -13 27 14 0 21 5 25 30 25 17 0 30 -4 30 -10z m3920 -12 c0 -18
-40 -81 -47 -75 -3 3 4 19 16 35 12 17 21 35 21 41 0 6 2 11 5 11 3 0 5 -6 5
-12z m-52 -144 c-19 -10 -24 -10 -26 1 -2 8 3 21 10 29 11 13 15 13 26 -2 10
-14 9 -18 -10 -28z m-3872 -9 c-19 -14 -36 -12 -36 6 0 5 12 9 28 9 26 -1 26
-1 8 -15z m-402 -30 c-6 -16 -24 -21 -24 -7 0 11 11 22 21 22 5 0 6 -7 3 -15z
m3764 -1 c-15 -16 -14 -19 19 -41 20 -13 42 -22 50 -19 8 3 11 1 8 -4 -3 -5 7
-15 22 -22 15 -7 39 -20 52 -30 15 -11 32 -16 45 -12 21 6 21 6 1 -8 -25 -18
-351 -188 -360 -188 -10 0 4 54 48 185 44 131 52 146 72 139 8 -3 22 -1 32 5
26 15 30 13 11 -5z m-3808 -14 c0 -5 -5 -10 -11 -10 -5 0 -7 5 -4 10 3 6 8 10
11 10 2 0 4 -4 4 -10z m57 -9 c0 -11 -5 -18 -9 -15 -4 3 -5 11 -1 19 7 21 12
19 10 -4z m3793 15 c0 -3 -4 -8 -10 -11 -5 -3 -10 -1 -10 4 0 6 5 11 10 11 6
0 10 -2 10 -4z m427 -33 c-3 -10 -5 -4 -5 12 0 17 2 24 5 18 2 -7 2 -21 0 -30z
m-3789 -53 c0 -26 0 -25 -18 45 -1 6 -1 17 0 25 3 20 18 -38 18 -70z m3662 46
c0 -3 -4 -8 -10 -11 -5 -3 -10 -1 -10 4 0 6 5 11 10 11 6 0 10 -2 10 -4z m-58
-39 c-14 -6 -26 -7 -32 -1 -5 5 4 9 23 10 30 1 30 1 9 -9z m-2826 -174 c-20
-47 -36 -92 -36 -100 0 -8 -4 -12 -9 -9 -5 3 -9 0 -8 -7 0 -6 -1 -21 -2 -32
-1 -17 -3 -18 -12 -5 -9 13 -10 12 -5 -3 3 -10 -8 -52 -25 -94 -29 -72 -54
-107 -71 -97 -5 3 -8 0 -8 -5 0 -6 -6 -11 -12 -11 -7 0 -73 -29 -146 -65 -73
-36 -139 -65 -146 -65 -8 0 -19 -7 -26 -15 -7 -8 -19 -15 -27 -15 -13 0 -13
-3 -3 -15 16 -19 1 -19 -23 0 -13 9 -16 18 -10 28 47 84 536 582 560 572 7 -2
12 -1 12 3 -1 4 2 18 6 31 7 20 9 21 17 7 7 -12 -1 -41 -26 -103z m2034 13 c0
-3 -4 -8 -10 -11 -5 -3 -10 -1 -10 4 0 6 5 11 10 11 6 0 10 -2 10 -4z m40 -26
c8 -5 11 -10 5 -10 -5 0 -17 5 -25 10 -8 5 -10 10 -5 10 6 0 17 -5 25 -10z
m217 -5 c8 -9 13 -19 10 -22 -6 -5 -37 21 -37 31 0 10 11 6 27 -9z m-127 -43
c-7 -3 -19 3 -28 13 -16 15 -15 16 12 4 15 -7 23 -15 16 -17z m159 -3 c-27
-17 -41 -9 -18 10 14 11 26 15 28 9 2 -6 -3 -14 -10 -19z m588 -55 c-3 -3 -12
-4 -19 -1 -8 3 -5 6 6 6 11 1 17 -2 13 -5z m-42 -14 c-3 -5 -12 -10 -18 -10
-7 0 -6 4 3 10 19 12 23 12 15 0z m-4968 -46 c-3 -3 -12 -4 -19 -1 -8 3 -5 6
6 6 11 1 17 -2 13 -5z m-177 -119 c14 -8 21 -14 15 -14 -5 0 -21 6 -35 14 -14
8 -20 14 -15 14 6 0 21 -6 35 -14z m4880 -5 c8 -5 11 -10 5 -10 -5 0 -17 5
-25 10 -8 5 -10 10 -5 10 6 0 17 -5 25 -10z m-4792 -40 c18 -11 37 -18 42 -15
13 8 52 -14 45 -25 -3 -5 10 -16 30 -26 19 -9 38 -21 42 -27 3 -5 -17 3 -46
18 -35 20 -48 31 -39 37 7 4 10 8 6 8 -3 0 -14 3 -24 7 -12 4 -15 3 -10 -6 5
-7 -15 -1 -43 13 -47 25 -62 36 -43 36 4 0 22 -9 40 -20z m212 -110 c17 -16
39 -30 50 -30 10 0 20 -5 22 -11 2 -6 15 -12 30 -12 14 -1 24 -6 21 -10 -2 -4
8 -5 24 -2 22 4 24 3 8 -4 -19 -8 -18 -10 10 -21 17 -6 31 -10 31 -8 1 2 11
-5 22 -15 10 -10 34 -19 52 -22 32 -4 55 -15 31 -15 -7 0 -3 -9 10 -21 l24
-21 -35 20 c-19 11 -103 54 -186 97 -86 44 -151 83 -151 91 0 19 2 18 37 -16z
m37 13 c0 -8 -6 -9 -19 -2 -10 5 -18 11 -18 12 0 2 8 3 18 3 10 0 19 -6 19
-13z m130 -59 c-3 -3 -12 -4 -19 -1 -8 3 -5 6 6 6 11 1 17 -2 13 -5z m3051
-61 c-10 -2 -28 -2 -40 0 -13 2 -5 4 17 4 22 1 32 -1 23 -4z m-1699 -80 c9
-19 9 -22 -3 -17 -7 3 -22 21 -32 40 -10 19 -22 34 -26 34 -5 0 -8 5 -8 12 0
14 52 -38 69 -69z m1493 32 c-4 -40 -7 -45 -28 -45 -30 0 -30 -7 -3 -31 13
-12 20 -26 16 -38 -4 -15 -1 -18 12 -14 9 4 14 4 11 0 -11 -12 -90 -34 -90
-25 0 11 -73 85 -128 130 -23 19 -29 29 -20 35 17 11 131 30 188 32 l45 1 -3
-45z m-1626 -49 c0 -41 2 -72 6 -69 5 2 8 -2 8 -11 0 -8 6 -16 13 -19 26 -9
-15 -37 -54 -37 -39 0 -44 6 -40 50 2 13 1 13 -9 0 -6 -8 -10 -10 -8 -5 7 21
78 165 82 165 2 0 3 -33 2 -74z m158 38 c3 -8 2 -12 -4 -9 -6 3 -10 10 -10 16
0 14 7 11 14 -7z m-1094 -4 c0 -5 -5 -10 -11 -10 -5 0 -7 5 -4 10 3 6 8 10 11
10 2 0 4 -4 4 -10z m-25 -26 c13 -5 14 -8 3 -15 -17 -11 -48 -11 -48 0 0 5 10
7 23 4 18 -4 19 -3 7 6 -17 12 -10 14 15 5z m81 -20 c18 -14 18 -14 -6 -3 -31
14 -36 19 -24 19 6 0 19 -7 30 -16z m-16 -20 c0 -2 -9 0 -20 6 -11 6 -20 13
-20 16 0 2 9 0 20 -6 11 -6 20 -13 20 -16z m1120 -67 c12 -23 18 -37 13 -32
-25 25 -83 103 -83 110 0 16 47 -36 70 -78z m-943 7 c-3 -3 -12 -4 -19 -1 -8
3 -5 6 6 6 11 1 17 -2 13 -5z m1017 -20 c3 -8 2 -12 -4 -9 -6 3 -10 10 -10 16
0 14 7 11 14 -7z m-387 -26 c-15 -9 -19 -4 -11 16 5 14 9 15 15 5 5 -8 3 -17
-4 -21z m3038 22 c3 -6 -1 -7 -9 -4 -18 7 -21 14 -7 14 6 0 13 -4 16 -10z
m542 -35 c7 -22 20 -53 28 -70 8 -16 26 -61 40 -100 14 -38 35 -92 46 -118 11
-27 18 -51 16 -53 -5 -5 -15 0 -157 82 -89 51 -147 87 -167 104 -7 6 -13 8
-13 5 0 -6 -141 66 -150 76 -3 4 -25 17 -50 30 l-45 23 55 8 c30 4 96 17 145
28 125 27 134 28 189 26 48 -1 49 -2 63 -41z m-3370 20 c8 -9 13 -19 10 -22
-10 -10 -37 6 -37 22 0 19 7 19 27 0z m159 -24 c1 -23 -2 -26 -11 -18 -9 8
-10 18 -4 30 13 23 14 22 15 -12z m-97 5 c11 -14 6 -15 -27 -7 -4 1 8 21 12
21 2 0 9 -6 15 -14z m2296 -36 c3 -5 1 -10 -4 -10 -6 0 -11 5 -11 10 0 6 2 10
4 10 3 0 8 -4 11 -10z m-1534 -17 c13 -16 12 -17 -3 -4 -10 7 -18 15 -18 17 0
8 8 3 21 -13z m1579 -3 c12 -7 10 -9 -8 -7 -12 0 -22 5 -22 9 0 11 12 10 30
-2z m133 -75 c4 -8 3 -16 -1 -19 -4 -3 -9 4 -9 15 -2 23 3 25 10 4z m169 -81
c35 -20 66 -41 70 -48 4 -6 8 -7 8 -3 0 5 22 -4 50 -19 27 -15 47 -31 44 -35
-3 -5 2 -6 10 -3 8 3 45 -12 83 -34 68 -40 509 -276 635 -341 73 -37 75 -47
18 -71 -28 -12 -29 -14 -13 -26 20 -15 6 -19 -17 -4 -8 5 -19 5 -25 0 -5 -4
-75 -41 -155 -80 -225 -111 -250 -125 -241 -128 5 -2 23 4 40 13 17 8 31 12
31 8 -1 -14 -51 -45 -65 -39 -7 2 -18 -1 -25 -8 -8 -10 -7 -15 5 -20 10 -4 14
-2 9 5 -5 8 4 10 32 6 27 -5 33 -4 19 3 -11 5 -15 9 -8 9 21 2 43 -11 43 -25
0 -8 10 -15 23 -16 139 -11 190 -15 245 -23 28 -4 52 -11 52 -15 0 -4 -28 -12
-62 -18 -35 -5 -108 -22 -163 -37 -92 -24 -228 -56 -395 -90 -36 -8 -130 -28
-210 -44 -80 -17 -149 -31 -154 -31 -5 0 -1 -10 10 -21 l19 -22 -25 14 c-42
23 -61 19 -170 -39 -104 -54 -133 -72 -95 -57 51 19 57 15 18 -14 -34 -26 -46
-30 -60 -22 -16 9 -15 11 7 12 15 1 19 3 9 6 -9 2 -47 -11 -85 -30 -38 -19
-77 -38 -88 -41 -15 -5 -16 -9 -6 -21 14 -16 35 -21 25 -6 -8 13 33 34 52 27
11 -4 13 -2 10 9 -4 8 -1 17 5 21 7 4 8 3 4 -4 -5 -8 -2 -10 8 -6 9 3 16 10
16 15 0 5 9 9 20 9 31 0 24 -14 -17 -35 -36 -18 -43 -21 -68 -24 -5 -1 -3 -6
5 -11 10 -6 11 -10 3 -10 -7 0 -13 -4 -13 -10 0 -5 6 -10 14 -10 8 0 31 -8 53
-19 79 -38 115 -51 125 -45 7 4 8 2 4 -4 -4 -7 -2 -12 5 -12 7 0 10 -2 7 -5
-3 -3 -22 2 -44 12 -21 9 -43 17 -49 19 -9 1 -34 12 -130 55 -11 5 -40 16 -65
24 -25 9 -115 53 -200 99 -85 46 -200 107 -255 136 -55 29 -122 65 -150 80
-27 15 -93 50 -145 77 -95 51 -112 60 -290 158 -52 29 -99 54 -105 56 -5 2
-38 19 -73 37 l-64 33 27 27 c15 15 53 65 84 112 32 47 80 117 107 155 27 39
55 82 61 98 14 30 28 34 40 13 8 -12 26 -35 131 -160 24 -28 60 -69 81 -91 21
-22 46 -54 55 -71 22 -37 56 -62 56 -40 0 8 -6 17 -12 19 -10 4 -9 8 2 16 13
9 13 11 -1 11 -15 0 -79 70 -79 87 0 5 -8 15 -17 24 -10 8 -47 48 -83 89 -36
40 -82 90 -103 111 -20 21 -33 40 -27 44 8 5 350 -74 455 -105 17 -5 71 -19
120 -31 50 -12 118 -30 152 -41 34 -11 66 -18 70 -15 4 2 40 0 78 -4 39 -5
129 -15 201 -23 73 -8 141 -19 153 -25 20 -11 20 -13 6 -48 -8 -20 -14 -38
-11 -40 7 -7 36 76 31 89 -3 8 -14 18 -24 23 -72 38 -261 153 -271 165 -3 3
-26 18 -52 33 -42 25 -48 32 -48 62 0 31 3 34 40 40 22 4 40 11 40 15 0 5 21
15 48 24 94 29 257 88 267 96 6 4 52 22 102 40 51 18 90 37 87 42 -9 13 57
-16 128 -58z m-3207 28 c-3 -3 -11 0 -18 7 -9 10 -8 11 6 5 10 -3 15 -9 12
-12z m2328 -42 c3 -11 1 -18 -4 -14 -5 3 -9 12 -9 20 0 20 7 17 13 -6z m-1283
-13 c0 -2 -12 -14 -27 -28 l-28 -24 24 28 c23 25 31 32 31 24z m4272 -50 c-29
-29 -49 -56 -46 -60 4 -4 -11 -28 -32 -54 -22 -27 -54 -69 -71 -94 -29 -44
-30 -48 -14 -64 15 -15 14 -16 -11 -4 -16 7 -28 16 -28 22 0 5 25 41 55 79 30
39 52 75 48 80 -3 6 -9 5 -14 -3 -5 -8 -9 -9 -9 -3 0 18 13 24 27 12 18 -15
29 -2 13 17 -10 13 -8 21 3 13 9 -7 36 25 30 35 -3 5 -2 7 4 4 5 -3 27 12 48
33 22 22 41 40 44 40 3 0 -18 -24 -47 -53z m-5117 23 c-3 -5 -10 -10 -16 -10
-5 0 -9 5 -9 10 0 6 7 10 16 10 8 0 12 -4 9 -10z m4232 -7 c21 -10 40 -18 41
-19 2 -2 1 -18 -3 -36 -7 -29 -9 -31 -16 -13 -6 13 -7 5 -4 -25 3 -30 2 -38
-4 -25 -6 16 -10 8 -15 -35 -9 -73 -28 -160 -34 -160 -3 0 -19 11 -36 24 -17
13 -76 49 -131 81 -129 74 -205 125 -205 136 0 5 10 9 23 10 12 0 87 18 167
39 172 45 169 45 217 23z m863 -3 c-6 -11 -13 -20 -16 -20 -2 0 0 9 6 20 6 11
13 20 16 20 2 0 0 -9 -6 -20z m-711 -41 c12 -7 9 -8 -10 -3 -24 5 -26 3 -22
-19 3 -14 0 -34 -6 -46 -8 -14 -8 -21 -1 -21 5 0 10 7 10 16 0 13 10 15 48 13
26 -1 54 0 62 4 8 3 24 8 35 10 11 3 0 3 -25 1 -38 -2 -42 -1 -23 8 17 8 47 7
115 -3 60 -9 81 -15 61 -17 -32 -3 -40 -11 -26 -25 3 -4 12 -2 19 4 7 6 19 9
26 6 11 -4 -333 -178 -411 -208 -21 -8 -23 -7 -18 13 3 13 9 40 13 61 5 29 9
35 16 25 7 -10 8 -8 4 5 -6 19 19 134 34 152 4 6 6 18 4 29 -2 16 2 18 38 12
23 -4 48 -11 57 -17z m-3369 -44 c-7 -9 -15 -13 -19 -10 -3 3 1 10 9 15 21 14
24 12 10 -5z m4870 -35 c0 -6 -35 -9 -87 -8 l-88 2 85 6 c47 3 86 7 88 8 1 1
2 -2 2 -8z m-4260 -10 c-8 -5 -19 -10 -25 -10 -5 0 -3 5 5 10 8 5 20 10 25 10
6 0 3 -5 -5 -10z m75 0 c17 -7 15 -9 -12 -9 -18 -1 -33 4 -33 9 0 12 17 12 45
0z m-155 -4 c0 -2 -7 -7 -16 -10 -8 -3 -12 -2 -9 4 6 10 25 14 25 6z m3402
-15 c-3 -9 -1 -12 6 -7 18 11 15 1 -11 -37 l-24 -35 0 29 c0 17 4 25 7 18 6
-8 9 -8 14 0 4 6 0 18 -8 27 -20 19 -20 20 3 20 12 0 17 -5 13 -15z m-2679 2
c-7 -2 -21 -2 -30 0 -10 3 -4 5 12 5 17 0 24 -2 18 -5z m-636 -9 c-3 -3 -12
-4 -19 -1 -8 3 -5 6 6 6 11 1 17 -2 13 -5z m-1106 -104 c-13 -11 -28 -20 -35
-20 -6 0 3 9 19 20 38 25 47 25 16 0z m4544 -90 c3 -6 -1 -7 -9 -4 -18 7 -21
14 -7 14 6 0 13 -4 16 -10z m70 -40 c3 -6 -1 -7 -9 -4 -18 7 -21 14 -7 14 6 0
13 -4 16 -10z m-1270 -150 c-3 -5 -12 -10 -18 -10 -7 0 -6 4 3 10 19 12 23 12
15 0z m1329 -2 c-4 -7 -22 -34 -40 -59 -30 -41 -32 -47 -18 -61 10 -10 12 -18
6 -22 -6 -3 -18 1 -26 10 -9 8 -16 12 -16 7 0 -4 -15 -26 -34 -48 -19 -22 -33
-42 -31 -46 3 -3 -9 -19 -25 -34 -17 -16 -30 -38 -30 -49 -1 -25 -22 -56 -39
-56 -14 0 18 65 48 97 12 12 21 25 21 28 0 4 36 51 79 106 44 54 85 108 91
119 6 11 13 20 16 20 3 0 2 -6 -2 -12z m-1357 -24 c-3 -3 -12 -4 -19 -1 -8 3
-5 6 6 6 11 1 17 -2 13 -5z m-37 -14 c0 -5 -5 -10 -11 -10 -5 0 -7 5 -4 10 3
6 8 10 11 10 2 0 4 -4 4 -10z m135 -18 c4 -43 17 -170 21 -197 3 -28 -33 -161
-42 -152 -3 2 0 16 6 31 18 47 12 58 -15 29 -42 -48 -71 -87 -78 -105 -3 -10
-13 -18 -22 -18 -8 0 -15 -6 -15 -13 0 -7 -14 -23 -31 -37 -17 -14 -60 -53
-96 -88 -35 -34 -69 -60 -74 -57 -5 4 -9 -1 -9 -10 0 -11 -5 -15 -15 -12 -8 4
-18 1 -22 -6 -8 -12 -9 -17 -12 -37 0 -5 -8 -10 -16 -10 -8 0 -24 -13 -37 -30
-12 -16 -28 -30 -35 -30 -7 0 -13 -4 -13 -8 0 -5 -11 -15 -25 -22 -28 -15 -33
-30 -10 -30 7 0 18 8 24 17 5 10 13 14 17 10 4 -4 -3 -17 -15 -28 -21 -20 -21
-22 -5 -40 9 -11 19 -17 22 -14 3 3 12 -5 21 -18 9 -12 14 -22 12 -22 -2 0 11
-17 29 -37 18 -21 38 -35 43 -31 6 3 7 1 3 -5 -3 -6 -2 -13 3 -16 5 -4 24 -25
42 -49 30 -39 -138 133 -209 214 l-32 36 98 94 c121 116 228 215 318 294 110
97 164 149 164 157 0 4 -11 8 -25 8 -16 0 -25 6 -25 16 0 12 3 14 13 6 7 -7
18 -7 27 -2 12 7 11 17 -2 64 -8 31 -11 56 -7 56 5 0 9 28 9 62 0 34 3 58 7
54 4 -3 7 -14 8 -24z m-38 -24 c-3 -7 -5 -2 -5 12 0 14 2 19 5 13 2 -7 2 -19
0 -25z m2033 -418 c0 -131 4 -200 11 -202 5 -2 13 -22 16 -46 5 -34 3 -42 -11
-42 -14 0 -16 -16 -16 -120 0 -73 4 -120 10 -120 6 0 10 -7 10 -16 0 -8 4 -13
9 -9 5 3 12 2 15 -3 4 -7 120 -66 206 -105 14 -7 45 -26 70 -43 25 -17 50 -32
55 -33 14 -3 184 -115 185 -121 0 -12 -128 -54 -275 -89 -134 -32 -229 -58
-257 -72 l-28 -12 0 -277 c0 -153 -3 -298 -6 -324 -6 -41 -11 -48 -43 -63 -20
-9 -209 -101 -421 -206 -212 -104 -422 -204 -467 -222 l-83 -33 0 964 1 965
22 8 c41 17 211 98 485 234 150 74 284 138 298 141 14 4 22 11 19 16 -11 18
27 11 62 -11 l34 -21 -193 -95 c-285 -141 -620 -303 -625 -303 -2 0 1 8 6 19
10 18 6 31 -11 31 -4 0 -8 -7 -8 -16 0 -9 -5 -12 -12 -8 -10 6 -10 5 -1 -7 13
-16 7 -29 -21 -45 -30 -16 -33 -36 -5 -32 l24 3 0 -857 c0 -815 -1 -858 -18
-858 -20 0 -37 -38 -36 -78 1 -27 1 -27 8 -3 3 13 16 30 28 38 19 13 22 12 28
-6 9 -29 29 -27 21 3 -5 22 7 30 211 132 119 60 218 107 220 104 2 -3 7 0 11
5 12 17 83 46 94 39 6 -4 8 -3 5 3 -8 12 101 66 115 57 6 -4 8 -3 5 3 -5 9
111 73 133 73 6 0 10 -9 10 -20 0 -11 7 -20 15 -20 18 0 19 12 3 28 -9 9 -9
15 1 25 11 10 13 9 8 -5 -8 -22 19 -32 28 -10 4 11 8 13 13 5 4 -7 8 11 9 38
1 53 -16 64 -27 18 -11 -41 -18 360 -19 1011 -1 450 2 621 10 610 8 -12 9 -10
5 10 -20 78 -19 80 3 80 18 0 21 6 21 45 0 25 -4 45 -9 45 -15 0 -42 -31 -36
-41 4 -5 -1 -9 -10 -9 -8 0 -18 7 -21 15 -4 8 -9 13 -13 11 -4 -3 -12 -1 -19
3 -8 5 11 17 50 34 l63 26 18 -21 c15 -18 17 -44 17 -218z m-540 204 c0 -2
-11 -4 -25 -4 -14 0 -25 4 -25 9 0 4 11 6 25 3 14 -2 25 -6 25 -8z m-95 -4
c15 -6 9 -9 -27 -9 -25 -1 -55 -4 -65 -7 -12 -5 -15 -4 -8 4 6 6 24 12 40 15
17 2 32 4 35 5 3 0 14 -3 25 -8z m-299 -29 c-4 -5 0 -12 6 -14 8 -3 6 -6 -4
-6 -18 -1 -24 10 -11 22 9 10 15 8 9 -2z m147 2 c-7 -2 -21 -2 -30 0 -10 3 -4
5 12 5 17 0 24 -2 18 -5z m-76 -9 c-3 -3 -12 -4 -19 -1 -8 3 -5 6 6 6 11 1 17
-2 13 -5z m808 -24 c-3 -5 -13 -10 -21 -10 -8 0 -12 5 -9 10 3 6 13 10 21 10
8 0 12 -4 9 -10z m-55 -278 l0 -238 -192 -94 c-106 -52 -196 -96 -200 -98 -5
-2 -8 104 -8 235 l1 238 197 97 c108 54 198 97 200 98 1 0 2 -107 2 -238z
m-1929 117 c-12 -46 -36 -142 -55 -213 -31 -120 -33 -131 -19 -153 9 -13 24
-28 34 -34 11 -5 19 -16 19 -24 0 -8 15 -17 35 -21 19 -3 40 -14 45 -23 6 -11
7 -5 3 20 -3 21 -1 39 5 43 15 9 28 -63 16 -83 -6 -9 -73 -58 -149 -109 -101
-67 -141 -89 -143 -78 -2 9 6 48 18 88 12 40 37 127 56 193 20 66 41 140 48
165 40 138 101 329 104 322 1 -5 -6 -47 -17 -93z m-1176 -79 c-3 -5 -11 -10
-16 -10 -6 0 -7 5 -4 10 3 6 11 10 16 10 6 0 7 -4 4 -10z m2681 -26 c-3 -9 -6
-115 -6 -237 l0 -222 -185 -92 -185 -93 0 243 0 242 58 23 c31 12 113 51 182
86 140 71 145 72 136 50z m-2609 -104 c-7 -17 -13 -26 -15 -21 -3 10 15 51 22
51 3 0 -1 -14 -7 -30z m3239 -17 c-10 -10 -19 5 -10 18 6 11 8 11 12 0 2 -7 1
-15 -2 -18z m135 -19 c10 -13 10 -17 -1 -24 -10 -6 -7 -9 11 -13 17 -3 13 -5
-13 -6 -38 -1 -60 15 -38 29 7 4 9 13 6 19 -11 17 20 13 35 -5z m-3403 -52
c-6 -23 -14 -39 -18 -37 -5 3 -1 23 7 45 20 51 25 47 11 -8z m3597 8 c-4 -6 6
-10 22 -11 15 0 22 -3 15 -6 -7 -3 -25 -2 -39 2 -21 5 -24 8 -12 16 18 11 22
11 14 -1z m-3615 -70 c0 -5 -8 -10 -17 -10 -15 0 -16 2 -3 10 19 12 20 12 20
0z m728 -25 c-3 -3 -9 2 -12 12 -6 14 -5 15 5 6 7 -7 10 -15 7 -18z m2352
-225 l0 -230 -200 -99 -200 -100 0 227 0 227 198 101 c108 56 198 102 200 103
1 0 2 -102 2 -229z m-2295 150 c3 -5 1 -10 -4 -10 -6 0 -11 5 -11 10 0 6 2 10
4 10 3 0 8 -4 11 -10z m715 -72 c0 -7 15 -29 33 -48 l32 -34 3 -731 c2 -799
-2 -955 -24 -955 -8 0 -14 -3 -14 -7 0 -5 -10 -19 -21 -33 l-21 -25 6 25 c5
21 7 1581 2 1675 -1 23 3 29 17 27 19 -3 22 14 7 52 -5 14 -16 26 -25 26 -8 0
-15 9 -15 20 0 11 5 20 10 20 6 0 10 -6 10 -12z m-32 -45 l-3 -38 -595 -297
c-327 -164 -603 -298 -612 -298 -10 0 -18 -4 -18 -9 0 -5 -13 -14 -30 -20 -16
-5 -30 -17 -30 -25 0 -21 27 -20 38 1 6 11 9 -304 8 -855 -1 -799 -2 -873 -17
-877 -21 -7 -29 -34 -18 -60 5 -14 8 -15 8 -4 1 8 6 20 13 27 10 10 15 8 24
-9 11 -21 11 -21 22 8 9 27 61 55 563 306 533 265 621 307 640 307 5 0 9 -12
9 -28 0 -27 -23 -39 -637 -344 -351 -174 -646 -319 -656 -322 -16 -5 -17 43
-15 960 l3 966 410 207 c488 245 877 438 888 440 5 0 7 -16 5 -36z m1183 -248
l1 -229 -33 -15 c-19 -8 -104 -49 -189 -91 l-155 -76 3 230 3 231 182 90 c100
50 183 90 184 90 1 -1 3 -104 4 -230z m-1188 -106 c-8 -8 -347 -178 -349 -176
-1 1 -4 64 -8 139 l-7 137 173 87 c95 47 178 90 183 95 7 7 11 -38 13 -132 1
-78 -1 -146 -5 -150z m-383 -44 c0 -74 0 -138 1 -142 1 -5 -181 -100 -403
-213 -222 -113 -409 -208 -415 -212 -7 -6 -11 35 -12 140 l-1 147 302 152
c167 84 347 172 401 198 53 25 97 50 97 55 0 6 7 10 15 10 13 0 15 -22 15
-135z m1998 -258 l0 -363 -169 -82 c-93 -45 -176 -82 -183 -82 -8 0 -16 -4
-18 -8 -2 -7 -421 -222 -431 -222 -1 0 -2 163 -1 363 l1 362 154 75 c85 41
262 129 394 196 132 66 243 121 247 122 4 1 7 -161 6 -361z m-1608 181 l0 -73
-176 -88 c-97 -48 -179 -86 -181 -84 -8 8 -5 141 4 145 4 1 82 41 173 87 91
46 168 84 173 84 4 1 7 -32 7 -71z m0 -341 l0 -243 -87 -38 c-49 -20 -130 -59
-180 -85 l-93 -48 0 238 0 239 178 89 c97 50 178 90 180 90 1 1 2 -108 2 -242z
m-390 143 c0 -57 -4 -80 -12 -80 -7 -1 -193 -90 -413 -199 l-400 -198 -3 38
c-2 20 1 52 5 70 9 32 25 41 359 211 289 147 447 228 462 237 1 0 2 -35 2 -79z
m-1 -707 l-1 -608 -411 -205 -412 -205 -4 612 c-3 513 -1 613 10 613 8 0 192
90 409 199 217 110 398 200 403 200 4 1 7 -272 6 -606z m-929 489 c0 -89 -3
-109 -15 -110 -8 0 -70 -1 -137 -2 -93 -1 -118 -4 -104 -12 10 -6 42 -14 70
-18 l51 -8 -45 0 c-25 1 -55 -2 -66 -6 l-22 -7 25 -49 c27 -54 28 -56 39 -38
4 7 3 8 -4 4 -9 -5 -12 6 -12 38 0 34 4 46 15 46 10 0 15 -10 15 -29 0 -30 22
-61 43 -61 7 -1 6 -5 -3 -13 -9 -7 -23 -22 -31 -34 -14 -21 -15 -21 -104 47
-50 38 -90 75 -90 82 0 7 -7 13 -15 13 -8 0 -39 15 -68 34 -42 27 -50 36 -41
47 6 8 16 14 23 14 6 0 83 29 171 63 174 70 273 105 293 106 9 1 12 -27 12
-107z m1319 -324 l0 -133 -172 -85 c-94 -47 -175 -86 -179 -88 -4 -2 -8 58 -8
132 l0 137 173 84 c94 47 175 85 180 85 4 0 7 -60 6 -132z m1397 -171 c8 10
-2 -18 -22 -62 -20 -44 -38 -86 -41 -92 -3 -7 -9 -10 -14 -7 -5 3 -6 -1 -4 -8
7 -17 -63 -163 -73 -154 -4 4 -7 13 -7 19 -1 16 -14 144 -20 185 -3 24 1 38
15 49 10 9 17 20 14 25 -8 12 55 68 77 68 10 0 23 -8 28 -17 6 -10 11 -13 11
-6 0 6 -4 15 -10 18 -5 3 -10 16 -10 28 1 16 6 10 21 -21 19 -41 21 -43 35
-25z m-166 37 c0 -8 -19 -13 -24 -6 -3 5 1 9 9 9 8 0 15 -2 15 -3z m-1232
-236 l-3 -212 -55 -27 c-30 -15 -110 -55 -177 -88 l-123 -61 0 213 0 212 173
87 c94 48 175 87 180 87 4 1 6 -94 5 -211z m909 76 c-3 -3 -12 -4 -19 -1 -8 3
-5 6 6 6 11 1 17 -2 13 -5z m-2276 -47 c-10 -9 -11 -8 -5 6 3 10 9 15 12 12 3
-3 0 -11 -7 -18z m-31 -51 c0 -3 -4 -8 -10 -11 -5 -3 -10 -1 -10 4 0 6 5 11
10 11 6 0 10 -2 10 -4z m2495 -6 c3 -6 -1 -7 -9 -4 -18 7 -21 14 -7 14 6 0 13
-4 16 -10z m115 -16 c8 -8 7 -13 -4 -17 -10 -4 -16 -1 -16 9 0 8 -4 12 -10 9
-5 -3 -17 -2 -27 3 -13 8 -10 9 15 8 17 -1 36 -6 42 -12z m-66 -9 c11 -8 16
-15 10 -15 -5 0 -18 7 -28 15 -11 8 -16 15 -10 15 5 0 18 -7 28 -15z m-2601
-40 c-3 -9 -8 -14 -10 -11 -3 3 -2 9 2 15 9 16 15 13 8 -4z m-47 -63 c-18 -16
-18 -16 -6 6 6 13 14 21 18 18 3 -4 -2 -14 -12 -24z m-52 -87 c-23 -36 -30
-23 -8 15 10 17 20 26 22 21 2 -5 -4 -21 -14 -36z m1577 -28 c-10 -9 -11 -8
-5 6 3 10 9 15 12 12 3 -3 0 -11 -7 -18z"/>
<path d="M5462 8796 c7 -8 15 -12 17 -11 5 6 -10 25 -20 25 -5 0 -4 -6 3 -14z"/>
<path d="M5382 8770 c0 -19 2 -27 5 -17 2 9 2 25 0 35 -3 9 -5 1 -5 -18z"/>
<path d="M5400 8748 c0 -62 5 -60 13 5 4 28 3 47 -3 47 -6 0 -10 -23 -10 -52z"/>
<path d="M5336 8762 c6 -4 16 -16 22 -27 8 -15 11 -16 12 -4 0 17 -19 39 -34
39 -8 0 -7 -3 0 -8z"/>
<path d="M5255 8714 c-19 -15 -22 -21 -9 -15 18 9 52 41 43 41 -2 0 -17 -12
-34 -26z"/>
<path d="M5310 8681 c0 -5 5 -13 10 -16 6 -3 10 -2 10 4 0 5 -4 13 -10 16 -5
3 -10 2 -10 -4z"/>
<path d="M5372 8660 c0 -14 2 -19 5 -12 2 6 2 18 0 25 -3 6 -5 1 -5 -13z"/>
<path d="M5240 8660 c0 -5 5 -10 10 -10 6 0 10 5 10 10 0 6 -4 10 -10 10 -5 0
-10 -4 -10 -10z"/>
<path d="M6368 8620 c48 -7 83 -20 54 -20 -7 0 -12 -5 -12 -11 0 -6 7 -9 15
-5 12 4 14 0 9 -22 -4 -15 -13 -32 -20 -38 -8 -6 -14 -25 -14 -43 0 -22 -5
-31 -16 -31 -14 0 -14 -2 -3 -16 8 -10 15 -12 17 -5 2 6 21 11 42 11 22 0 40
5 43 13 2 6 3 -9 1 -35 -2 -39 1 -48 14 -48 10 0 28 -10 42 -23 31 -29 53 -37
69 -27 10 5 6 18 -14 49 -15 22 -31 38 -36 35 -5 -3 -6 2 -3 10 7 19 -26 77
-39 69 -6 -3 -7 -1 -3 5 7 11 -2 29 -52 105 -24 36 -26 37 -86 36 l-61 -1 53
-8z m149 -172 c-3 -8 -6 -5 -6 6 -1 11 2 17 5 13 3 -3 4 -12 1 -19z m23 -33
c-7 -8 -17 -15 -22 -15 -11 0 14 29 26 30 5 0 3 -7 -4 -15z m25 -46 c11 -16 1
-19 -13 -3 -7 8 -8 14 -3 14 5 0 13 -5 16 -11z"/>
<path d="M5528 8553 c7 -3 16 -2 19 1 4 3 -2 6 -13 5 -11 0 -14 -3 -6 -6z"/>
<path d="M6370 8469 c0 -5 5 -7 10 -4 6 3 10 8 10 11 0 2 -4 4 -10 4 -5 0 -10
-5 -10 -11z"/>
<path d="M4493 8804 c-7 -7 -13 -23 -13 -36 l0 -22 21 21 c15 14 19 26 13 36
-8 13 -11 13 -21 1z"/>
<path d="M4358 8763 c6 -2 18 -2 25 0 6 3 1 5 -13 5 -14 0 -19 -2 -12 -5z"/>
<path d="M4374 8704 c3 -9 6 -27 6 -40 0 -13 5 -24 10 -24 6 0 10 18 10 40 0
30 -4 40 -16 40 -11 0 -14 -5 -10 -16z"/>
<path d="M3276 7813 c-6 -14 -5 -15 5 -6 7 7 10 15 7 18 -3 3 -9 -2 -12 -12z"/>
<path d="M8079 7814 c-5 -15 -8 -29 -5 -31 2 -2 8 10 14 26 13 38 5 41 -9 5z"/>
<path d="M8048 7745 c-3 -11 -9 -29 -13 -40 -3 -11 1 -7 10 8 9 16 15 33 12
40 -2 6 -6 3 -9 -8z"/>
<path d="M8009 7654 c-5 -15 -8 -29 -5 -31 2 -2 8 10 14 26 13 38 5 41 -9 5z"/>
<path d="M6917 7574 c-3 -5 1 -15 9 -22 16 -14 18 -5 5 17 -5 7 -11 9 -14 5z"/>
<path d="M8931 6624 c0 -11 3 -14 6 -6 3 7 2 16 -1 19 -3 4 -6 -2 -5 -13z"/>
<path d="M9000 6600 c6 -11 13 -20 16 -20 2 0 0 9 -6 20 -6 11 -13 20 -16 20
-2 0 0 -9 6 -20z"/>
<path d="M8506 6324 c-8 -21 -8 -24 3 -24 12 0 22 28 12 35 -5 3 -12 -2 -15
-11z"/>
<path d="M8520 6275 c0 -14 71 -75 88 -75 22 0 72 22 72 33 0 4 -27 7 -59 7
-51 0 -61 3 -66 20 -5 17 -35 30 -35 15z"/>
<path d="M8441 6256 c-8 -10 -9 -16 -1 -21 6 -4 9 -1 8 7 -2 7 3 12 10 10 8
-1 11 2 7 8 -8 13 -10 13 -24 -4z"/>
<path d="M8720 6230 c0 -5 5 -10 10 -10 6 0 10 5 10 10 0 6 -4 10 -10 10 -5 0
-10 -4 -10 -10z"/>
<path d="M8790 6220 c19 -4 29 -8 21 -9 -8 0 -12 -3 -10 -6 3 -2 16 -1 29 2
22 6 23 7 4 14 -10 4 -32 7 -49 7 -29 -1 -29 -1 5 -8z"/>
<path d="M8449 6183 c-11 -13 -11 -17 -1 -20 6 -3 10 -8 7 -13 -3 -4 3 -10 13
-12 15 -4 17 0 14 29 -5 37 -13 41 -33 16z"/>
<path d="M8730 6190 c-11 -8 -7 -9 15 -4 37 8 45 14 19 14 -10 0 -26 -5 -34
-10z"/>
<path d="M8367 6163 c-11 -10 -8 -18 13 -43 11 -13 20 -18 20 -13 0 6 -7 16
-15 23 -9 7 -14 19 -11 27 6 14 3 17 -7 6z"/>
<path d="M8640 6155 c-14 -8 -20 -14 -14 -15 5 0 19 7 30 15 24 18 16 19 -16
0z"/>
<path d="M8398 6153 c7 -3 16 -2 19 1 4 3 -2 6 -13 5 -11 0 -14 -3 -6 -6z"/>
<path d="M8508 6143 c6 -2 18 -2 25 0 6 3 1 5 -13 5 -14 0 -19 -2 -12 -5z"/>
<path d="M8309 6096 c-7 -14 -16 -26 -21 -26 -4 0 -8 -4 -8 -10 0 -5 8 -6 18
-3 15 6 15 5 3 -10 -9 -11 -10 -17 -2 -17 6 0 11 5 11 11 0 5 5 7 11 3 8 -4 8
-1 1 13 -7 12 -7 24 0 37 5 9 7 20 4 23 -3 3 -11 -6 -17 -21z"/>
<path d="M8498 6113 c7 -3 16 -2 19 1 4 3 -2 6 -13 5 -11 0 -14 -3 -6 -6z"/>
<path d="M8346 6094 c-11 -8 -16 -14 -10 -14 13 0 39 18 34 24 -3 2 -14 -2
-24 -10z"/>
<path d="M8390 6070 c-9 -6 -10 -10 -3 -10 6 0 15 5 18 10 8 12 4 12 -15 0z"/>
<path d="M2756 7935 c-18 -13 -17 -14 12 -12 18 1 31 6 29 11 -5 16 -21 16
-41 1z"/>
<path d="M2395 7670 c-3 -6 1 -7 9 -4 18 7 21 14 7 14 -6 0 -13 -4 -16 -10z"/>
<path d="M2418 7593 c7 -3 16 -2 19 1 4 3 -2 6 -13 5 -11 0 -14 -3 -6 -6z"/>
<path d="M2495 7580 c19 -8 93 -14 84 -6 -2 2 -26 6 -54 9 -32 4 -43 3 -30 -3z"/>
<path d="M2615 7561 c31 -9 102 -14 94 -7 -2 2 -31 6 -64 9 -39 4 -50 3 -30
-2z"/>
<path d="M2735 7540 c19 -8 103 -14 94 -6 -2 2 -29 6 -59 9 -34 3 -47 2 -35
-3z"/>
<path d="M2848 7523 c6 -2 18 -2 25 0 6 3 1 5 -13 5 -14 0 -19 -2 -12 -5z"/>
<path d="M2971 7000 c9 -5 28 -6 45 0 27 8 26 8 -16 9 -32 0 -40 -2 -29 -9z"/>
<path d="M2300 6770 c8 -5 22 -9 30 -9 10 0 8 3 -5 9 -27 12 -43 12 -25 0z"/>
<path d="M3076 6864 c-3 -9 -6 -23 -6 -32 0 -21 15 -5 25 26 7 25 -9 31 -19 6z"/>
<path d="M6523 6715 c-15 -26 -39 -61 -51 -76 -13 -16 -21 -29 -17 -29 4 0 2
-7 -5 -15 -7 -8 -16 -12 -21 -9 -5 3 -9 1 -9 -4 0 -11 29 -37 34 -31 2 2 27
49 55 103 53 103 63 143 14 61z"/>
<path d="M5900 6500 c-13 -8 -13 -11 -1 -19 16 -10 8 -61 -10 -61 -6 0 -7 -4
-4 -10 4 -6 -6 -10 -22 -10 -37 0 -61 -44 -37 -67 13 -14 14 -13 9 9 -6 23 -4
24 29 20 31 -4 36 -1 36 16 0 19 27 38 38 27 3 -3 0 -5 -6 -5 -7 0 -12 -7 -12
-15 0 -8 3 -15 8 -15 13 1 52 38 52 50 0 7 6 10 14 7 8 -3 22 1 33 9 17 14 17
14 -1 7 -12 -4 -17 -3 -13 4 4 6 -1 10 -11 10 -35 0 -42 3 -42 18 0 9 -8 14
-22 12 -14 -1 -22 3 -20 11 2 14 1 15 -18 2z m50 -60 c0 -11 -7 -20 -15 -20
-8 0 -15 9 -15 20 0 11 7 20 15 20 8 0 15 -9 15 -20z"/>
<path d="M5870 6463 c0 -18 5 -33 10 -33 13 0 13 30 0 50 -7 11 -10 7 -10 -17z"/>
<path d="M6025 6416 c-10 -7 -19 -23 -20 -35 -2 -26 -3 -25 25 -1 21 18 21 20
4 21 -16 0 -16 2 4 9 12 5 22 12 22 15 0 9 -16 5 -35 -9z"/>
<path d="M6065 6410 c-3 -5 -3 -10 1 -10 4 0 -1 -9 -11 -20 -10 -11 -13 -20
-8 -20 15 0 30 22 30 43 0 19 -3 21 -12 7z"/>
<path d="M5929 6318 c-6 -21 -5 -37 2 -32 5 3 7 10 4 15 -8 12 1 11 28 -2 21
-10 21 -10 3 5 -18 14 -35 20 -37 14z"/>
<path d="M5929 6263 c-13 -16 -12 -17 4 -4 9 7 17 15 17 17 0 8 -8 3 -21 -13z"/>
<path d="M5854 6208 l-19 -23 23 19 c21 18 27 26 19 26 -2 0 -12 -10 -23 -22z"/>
<path d="M5800 6180 c0 -5 5 -10 10 -10 6 0 10 5 10 10 0 6 -4 10 -10 10 -5 0
-10 -4 -10 -10z"/>
<path d="M4720 6119 c0 -5 5 -7 10 -4 6 3 10 8 10 11 0 2 -4 4 -10 4 -5 0 -10
-5 -10 -11z"/>
<path d="M4807 6093 c6 -15 9 -15 38 -4 17 7 16 9 -11 13 -24 3 -31 1 -27 -9z"/>
<path d="M4728 6083 c7 -3 16 -2 19 1 4 3 -2 6 -13 5 -11 0 -14 -3 -6 -6z"/>
<path d="M4878 6083 c6 -2 18 -2 25 0 6 3 1 5 -13 5 -14 0 -19 -2 -12 -5z"/>
<path d="M4960 6050 c0 -5 5 -10 10 -10 6 0 10 5 10 10 0 6 -4 10 -10 10 -5 0
-10 -4 -10 -10z"/>
<path d="M5007 6035 c-51 -18 -57 -25 -15 -18 21 3 38 1 42 -6 4 -6 20 -11 37
-11 16 0 29 -4 29 -10 0 -5 -4 -10 -9 -10 -13 0 -24 -49 -22 -97 2 -33 -1 -43
-13 -43 -9 0 -16 -4 -16 -10 0 -5 6 -10 13 -10 8 0 22 -9 31 -19 18 -20 51
-28 146 -38 41 -4 50 -8 35 -14 -17 -6 -17 -8 -2 -8 9 -1 17 -5 17 -11 0 -6
29 -10 66 -10 36 0 74 -5 85 -10 42 -23 12 13 -128 154 -87 88 -151 145 -160
142 -7 -3 -23 -1 -35 4 -22 8 -21 9 7 10 27 1 28 2 11 12 -14 8 -24 8 -37 -1
-22 -13 -49 -15 -49 -2 0 5 6 12 13 14 28 12 -11 5 -46 -8z m293 -190 c11 -13
10 -14 -4 -9 -9 3 -16 10 -16 15 0 13 6 11 20 -6z"/>
<path d="M5453 6033 c9 -2 25 -2 35 0 9 3 1 5 -18 5 -19 0 -27 -2 -17 -5z"/>
<path d="M4880 5970 c0 -11 6 -20 14 -20 24 0 28 18 6 30 -17 9 -20 8 -20 -10z"/>
<path d="M5536 5965 c-9 -26 -7 -32 5 -12 6 10 9 21 6 23 -2 3 -7 -2 -11 -11z"/>
<path d="M5558 5918 c-3 -13 -9 -32 -13 -43 -4 -11 3 -5 15 14 13 21 18 37 12
43 -6 6 -11 1 -14 -14z"/>
<path d="M4800 5910 c0 -5 6 -10 14 -10 8 0 18 5 21 10 3 6 -3 10 -14 10 -12
0 -21 -4 -21 -10z"/>
<path d="M5520 5829 c-7 -11 -10 -23 -7 -25 2 -2 9 7 15 21 14 30 7 33 -8 4z"/>
<path d="M4125 5820 c-3 -6 1 -7 9 -4 18 7 21 14 7 14 -6 0 -13 -4 -16 -10z"/>
<path d="M4140 5800 c-9 -6 -10 -10 -3 -10 6 0 15 5 18 10 8 12 4 12 -15 0z"/>
<path d="M5486 5753 c-6 -14 -5 -15 5 -6 7 7 10 15 7 18 -3 3 -9 -2 -12 -12z"/>
<path d="M5465 5719 c-4 -6 -5 -12 -2 -15 2 -3 7 2 10 11 7 17 1 20 -8 4z"/>
<path d="M5443 5665 c-3 -9 -3 -18 -1 -21 3 -3 8 4 11 16 6 23 -1 27 -10 5z"/>
<path d="M6263 5660 c-18 -9 -30 -20 -27 -22 7 -8 53 15 59 30 2 6 3 11 2 11
-1 -1 -17 -9 -34 -19z"/>
<path d="M6252 5623 c-13 -9 -40 -17 -60 -18 -29 -1 -37 -5 -37 -20 0 -11 -11
-25 -25 -32 -18 -9 -20 -13 -7 -13 9 0 17 -4 17 -10 0 -11 -33 -13 -68 -4
l-23 7 28 19 c30 21 25 21 -19 -1 -16 -8 -28 -18 -28 -23 0 -5 4 -7 9 -3 5 3
12 1 16 -5 3 -5 0 -10 -7 -10 -10 0 -10 -2 1 -9 11 -7 10 -11 -5 -20 -15 -9
-5 -10 46 -5 36 3 71 11 78 17 7 5 27 10 45 10 30 -1 30 0 10 10 -13 5 -23 19
-23 29 0 11 5 16 10 13 6 -3 10 1 10 9 0 19 16 21 23 4 3 -7 6 -1 6 15 1 15 6
27 12 27 5 0 8 -4 5 -9 -4 -5 -2 -20 3 -33 l9 -23 5 25 c6 30 5 70 -3 69 -3 0
-15 -7 -28 -16z m-62 -92 c0 -14 -9 -21 -31 -26 -17 -4 -33 -5 -35 -2 -3 2 9
7 26 10 33 7 40 23 13 30 -14 4 -12 5 5 6 15 1 22 -5 22 -18z"/>
<path d="M6195 5620 c-3 -5 -2 -10 4 -10 5 0 13 5 16 10 3 6 2 10 -4 10 -5 0
-13 -4 -16 -10z"/>
<path d="M6115 5580 c-3 -5 3 -10 14 -10 12 0 21 5 21 10 0 6 -6 10 -14 10 -8
0 -18 -4 -21 -10z"/>
<path d="M5379 5494 c-5 -15 -8 -29 -5 -31 2 -2 8 10 14 26 13 38 5 41 -9 5z"/>
<path d="M5958 5496 c-16 -12 -15 -13 11 -12 22 1 27 4 19 14 -6 6 -11 12 -12
12 0 0 -9 -7 -18 -14z"/>
<path d="M5995 5460 c-3 -5 3 -10 15 -10 12 0 18 5 15 10 -3 6 -10 10 -15 10
-5 0 -12 -4 -15 -10z"/>
<path d="M5345 5405 c-9 -26 -15 -48 -12 -51 3 -3 12 16 21 42 21 62 14 68 -9
9z"/>
<path d="M7966 6368 c3 -5 10 -6 15 -3 13 9 11 12 -6 12 -8 0 -12 -4 -9 -9z"/>
<path d="M7235 6374 c-9 -14 -14 -29 -10 -32 7 -7 45 34 45 49 0 17 -18 9 -35
-17z"/>
<path d="M7478 6343 c6 -2 18 -2 25 0 6 3 1 5 -13 5 -14 0 -19 -2 -12 -5z"/>
<path d="M7428 6333 c20 -8 14 -41 -9 -48 -11 -4 -19 -9 -16 -11 7 -7 117 38
117 48 0 5 -15 6 -34 3 -20 -4 -36 -2 -40 4 -4 6 -13 11 -19 10 -9 0 -9 -2 1
-6z"/>
<path d="M7365 6309 c-4 -6 -4 -13 -1 -16 3 -4 6 -1 6 6 0 9 10 11 33 7 24 -5
27 -4 12 3 -27 13 -43 13 -50 0z"/>
<path d="M7285 6210 c-3 -6 1 -7 9 -4 18 7 21 14 7 14 -6 0 -13 -4 -16 -10z"/>
<path d="M8040 5796 c0 -2 8 -10 18 -17 15 -13 16 -12 3 4 -13 16 -21 21 -21
13z"/>
<path d="M8812 5450 c0 -19 4 -46 8 -60 6 -20 8 -21 8 -5 1 11 -3 38 -7 60
l-9 40 0 -35z"/>
<path d="M7880 5159 c0 -11 5 -17 10 -14 6 3 10 13 10 21 0 8 -4 14 -10 14 -5
0 -10 -9 -10 -21z"/>
<path d="M8550 5330 c0 -11 -12 -30 -27 -43 -68 -56 -76 -67 -70 -101 4 -25 0
-37 -14 -49 -26 -22 -24 -43 6 -79 14 -16 25 -39 25 -50 0 -20 1 -20 18 -5 20
18 72 23 72 7 0 -20 18 -9 24 14 3 13 17 31 31 40 27 18 46 50 69 116 13 37
13 45 0 57 -8 8 -14 30 -14 48 0 37 -14 52 -33 37 -7 -5 -24 -12 -39 -14 -24
-5 -28 -2 -28 18 0 13 -4 24 -10 24 -5 0 -10 -9 -10 -20z m110 -14 c0 -3 -4
-8 -10 -11 -5 -3 -10 -1 -10 4 0 6 5 11 10 11 6 0 10 -2 10 -4z m-6 -48 c15
-59 -14 -178 -44 -178 -6 0 -31 -13 -55 -30 -55 -38 -67 -38 -84 1 -11 26 -11
41 -1 87 7 31 17 65 22 77 16 33 69 63 114 64 35 1 43 -3 48 -21z"/>
<path d="M8555 5240 c-34 -13 -45 -34 -51 -99 -6 -54 -5 -61 10 -61 14 0 16 6
11 31 -16 71 18 129 66 114 19 -6 20 -12 15 -68 -4 -41 -3 -55 3 -41 9 21 15
72 12 112 -1 24 -27 29 -66 12z"/>
<path d="M8203 5138 c-6 -7 -13 -20 -18 -28 -6 -12 -5 -13 6 -2 20 19 38 15
32 -8 -3 -11 -9 -18 -13 -15 -4 3 -31 -18 -59 -47 -38 -38 -50 -56 -45 -70 4
-12 -1 -24 -12 -32 -16 -12 -15 -14 6 -29 16 -11 28 -13 35 -7 7 5 14 7 18 4
3 -3 14 -1 25 5 27 14 40 81 18 93 -19 11 -21 48 -3 48 18 0 57 55 57 80 0 23
-31 28 -47 8z"/>
<path d="M8045 5048 c-27 -15 -35 -28 -35 -60 0 -34 30 -38 60 -8 21 21 24 37
14 64 -7 19 -12 19 -39 4z"/>
<path d="M8559 4814 c-9 -11 -24 -35 -34 -54 -22 -44 -52 -78 -87 -96 -22 -11
-27 -21 -30 -63 l-3 -49 38 20 39 19 34 -26 c19 -14 34 -30 34 -36 0 -5 7 -9
15 -9 8 0 15 7 15 16 0 9 9 32 21 51 14 22 19 42 15 58 -6 23 -4 25 32 25 39
0 39 0 46 46 3 26 6 58 6 72 0 24 -1 24 -19 8 -10 -9 -34 -19 -53 -22 -32 -6
-35 -4 -44 26 -9 31 -10 31 -25 14z"/>
<path d="M8138 4627 l-108 -51 1 -46 c1 -43 2 -44 12 -18 8 21 32 38 102 72
88 42 125 68 125 87 0 16 -22 9 -132 -44z"/>
<path d="M8128 4479 c-13 -7 -16 -18 -12 -38 5 -22 -1 -36 -25 -63 -37 -42
-39 -52 -8 -44 19 4 25 0 35 -27 11 -28 14 -30 25 -16 7 8 20 18 30 22 12 4
17 17 17 42 0 19 4 35 10 35 5 0 14 10 21 21 11 21 9 21 -23 15 -32 -6 -33 -5
-33 26 0 34 -11 43 -37 27z"/>
<path d="M6400 4308 c-58 -27 -115 -54 -126 -58 -27 -11 -40 -82 -24 -139 12
-46 35 -54 63 -23 20 22 23 76 5 69 -7 -2 -13 -15 -13 -28 0 -14 -6 -24 -15
-24 -23 0 -26 92 -4 116 9 11 24 19 32 19 10 0 6 -9 -13 -26 -30 -28 -28 -42
4 -24 19 10 25 23 24 56 0 6 8 9 18 7 21 -6 35 -76 25 -118 -4 -14 -2 -25 4
-25 6 0 10 32 10 79 0 62 4 83 17 97 17 16 18 15 26 -22 4 -21 7 -56 5 -77 -2
-20 -1 -36 2 -34 3 1 17 9 32 16 23 12 27 21 30 66 2 42 0 51 -9 43 -17 -13
-43 -3 -43 17 0 9 12 18 29 21 29 6 48 28 33 38 -4 3 -55 -18 -112 -46z m80
-91 c0 -26 -9 -39 -20 -32 -10 6 0 55 11 55 5 0 9 -10 9 -23z"/>
<path d="M6183 4202 c-15 -12 -22 -30 -25 -64 -3 -46 3 -60 17 -38 3 6 15 10
26 10 28 0 22 -43 -6 -48 -11 -2 -27 -10 -36 -18 -23 -20 -29 -8 -29 58 0 59
-8 70 -30 43 -6 -8 -22 -13 -33 -12 -24 2 -23 6 -19 -125 2 -58 4 -61 17 -44
10 13 15 43 15 83 0 45 4 63 13 63 8 0 13 -17 15 -52 1 -28 4 -53 6 -55 5 -5
99 27 114 40 8 6 11 20 7 35 -3 13 -8 47 -11 76 -7 62 -13 70 -41 48z m22 -42
c3 -5 -1 -10 -10 -10 -9 0 -13 5 -10 10 3 6 8 10 10 10 2 0 7 -4 10 -10z"/>
<path d="M5972 4094 l-32 -13 0 -93 0 -93 20 30 c12 18 18 39 15 52 -4 16 2
27 23 41 18 13 28 30 30 50 3 37 -14 44 -56 26z m28 -33 c0 -12 -20 -25 -27
-18 -7 7 6 27 18 27 5 0 9 -4 9 -9z"/>
<path d="M8499 4337 c-112 -56 -253 -125 -313 -152 -154 -71 -165 -78 -159
-109 4 -21 8 -24 19 -15 14 12 234 121 304 151 34 15 41 21 30 28 -12 8 -11
10 5 11 11 1 25 1 31 0 7 -1 14 8 17 19 3 11 11 20 19 19 10 0 10 -2 1 -6 -7
-2 -13 -9 -13 -13 0 -10 87 26 110 45 8 7 35 23 60 36 25 13 51 30 58 37 7 6
17 12 22 12 8 0 23 30 17 36 -2 2 -96 -42 -208 -99z m-139 -111 c0 -9 -40 -13
-46 -5 -3 5 6 9 20 9 14 0 26 -2 26 -4z m-76 -31 c-10 -8 -28 -14 -39 -14 -18
0 -17 1 5 14 34 20 60 20 34 0z m-154 -75 c-8 -5 -19 -10 -25 -10 -5 0 -3 5 5
10 8 5 20 10 25 10 6 0 3 -5 -5 -10z"/>
<path d="M8418 4192 c-152 -75 -300 -147 -328 -160 -34 -16 -54 -32 -61 -49
-12 -31 -4 -43 14 -20 6 9 89 53 182 98 94 45 234 112 313 150 79 38 147 69
152 69 8 0 20 24 20 41 0 5 -3 9 -7 9 -5 -1 -133 -63 -285 -138z"/>
<path d="M8645 4229 c-33 -15 -66 -28 -74 -28 -26 -2 -447 -215 -498 -253 -49
-36 -66 -58 -44 -58 20 0 658 320 673 337 23 28 0 28 -57 2z m-85 -43 c0 -11
-198 -114 -370 -192 -124 -58 -74 -29 151 85 118 60 215 109 217 110 1 0 2 -1
2 -3z"/>
<path d="M8325 3995 c-241 -119 -291 -147 -293 -166 -3 -18 -1 -21 10 -12 22
18 221 119 310 158 132 58 151 68 183 91 17 11 45 27 63 35 17 8 32 20 32 26
0 7 -3 13 -7 12 -5 0 -138 -65 -298 -144z"/>
<path d="M8477 3971 c-108 -54 -197 -97 -197 -95 0 2 25 20 55 40 30 20 55 39
55 41 0 7 -65 -30 -87 -49 -12 -11 -79 -50 -149 -87 -92 -48 -130 -73 -136
-90 -8 -23 -7 -23 14 -9 30 20 473 232 563 270 68 28 105 53 105 70 0 18 -32
5 -223 -91z"/>
<path d="M8465 3896 c-163 -83 -307 -151 -314 -149 -8 3 -90 -45 -113 -65 -10
-8 -18 -28 -18 -45 0 -29 0 -29 18 -9 17 21 222 132 243 132 6 0 51 22 100 50
48 27 94 51 101 52 7 2 15 6 18 9 3 3 26 20 53 38 26 18 45 36 42 42 -4 5 -7
8 -8 8 -1 -1 -56 -29 -122 -63z"/>
<path d="M8625 3881 c-49 -21 -162 -75 -250 -119 -88 -45 -204 -101 -257 -126
-89 -41 -98 -47 -98 -72 0 -27 0 -27 18 -7 9 10 48 32 86 47 38 15 90 39 115
53 25 14 54 27 65 29 10 2 35 14 55 28 20 13 54 30 76 37 41 14 261 124 283
141 13 11 16 28 5 28 -5 0 -48 -18 -98 -39z"/>
<path d="M8660 3829 c0 -5 5 -7 10 -4 6 3 10 8 10 11 0 2 -4 4 -10 4 -5 0 -10
-5 -10 -11z"/>
<path d="M8655 3801 c-3 -6 -11 -9 -16 -6 -5 4 -17 1 -26 -4 -16 -9 -15 -10 7
-11 28 0 58 16 48 25 -3 4 -9 1 -13 -4z"/>
<path d="M8536 3768 c8 -12 -16 -39 -27 -32 -5 3 -9 -3 -9 -12 0 -16 1 -16 20
1 11 10 20 13 20 7 0 -6 -4 -14 -10 -17 -5 -3 -10 -11 -10 -18 0 -6 7 -2 15
10 10 14 22 20 33 17 13 -5 14 -4 3 4 -11 8 -10 12 5 21 11 6 14 11 7 11 -6 0
-15 -4 -18 -10 -12 -19 -26 -11 -16 8 7 14 6 19 -4 19 -8 0 -12 -4 -9 -9z"/>
<path d="M8470 3747 c-19 -13 -73 -40 -120 -61 -234 -107 -330 -158 -330 -177
0 -21 20 -25 37 -8 15 15 273 139 273 131 0 -4 4 -2 8 4 7 12 87 64 97 64 4 0
4 -4 1 -8 -2 -4 4 -8 14 -9 11 -1 22 2 25 8 3 5 0 6 -8 3 -8 -3 -18 -1 -21 4
-6 10 54 58 67 54 5 -1 6 2 2 8 -7 12 -3 13 -45 -13z"/>
<path d="M8608 3763 c7 -3 16 -2 19 1 4 3 -2 6 -13 5 -11 0 -14 -3 -6 -6z"/>
<path d="M8385 3650 c-3 -6 1 -7 9 -4 18 7 21 14 7 14 -6 0 -13 -4 -16 -10z"/>
<path d="M8303 3616 c-28 -13 -30 -26 -3 -19 11 3 20 9 20 14 0 5 7 6 15 3 8
-4 15 -4 15 -1 0 11 -26 12 -47 3z"/>
<path d="M7038 4099 c-34 -17 -38 -24 -38 -57 0 -56 8 -62 53 -45 38 16 38 16
34 65 -3 27 -6 51 -8 53 -2 2 -21 -6 -41 -16z m22 -55 c-19 -22 -30 -17 -30
16 0 32 16 41 23 13 3 -13 5 -11 7 7 3 25 3 25 7 2 3 -13 -1 -30 -7 -38z m-43
-26 c-2 -13 -4 -3 -4 22 0 25 2 35 4 23 2 -13 2 -33 0 -45z m63 12 c0 -12 -40
-34 -48 -26 -3 4 3 13 14 21 22 17 34 19 34 5z"/>
<path d="M6970 4020 c6 -34 4 -42 -11 -50 -29 -16 -35 -12 -31 25 4 35 16 46
25 23 3 -7 6 -8 6 -3 0 6 -3 16 -8 23 -12 20 -61 -5 -61 -32 0 -17 2 -18 10
-6 7 11 10 5 11 -25 1 -22 1 -43 0 -47 -2 -14 10 -8 42 21 24 23 31 39 33 70
1 28 -2 41 -11 41 -9 0 -10 -11 -5 -40z"/>
<path d="M6834 3996 c-3 -8 -4 -30 -2 -50 3 -34 4 -36 22 -23 15 11 17 21 12
50 -7 38 -22 48 -32 23z m21 -15 c3 -5 1 -12 -5 -16 -5 -3 -10 1 -10 9 0 18 6
21 15 7z m5 -35 c0 -3 -4 -8 -10 -11 -5 -3 -10 -1 -10 4 0 6 5 11 10 11 6 0
10 -2 10 -4z"/>
<path d="M6852 3906 c-36 -21 -38 -27 -4 -15 18 6 32 15 32 20 0 5 -1 9 -2 8
-2 -1 -13 -7 -26 -13z"/>
<path d="M7065 3910 c-3 -5 -2 -10 4 -10 5 0 13 5 16 10 3 6 2 10 -4 10 -5 0
-13 -4 -16 -10z"/>
<path d="M6953 3892 c-18 -11 -37 -65 -21 -59 7 2 12 11 10 20 -1 8 8 23 20
31 22 16 14 23 -9 8z"/>
<path d="M7050 3881 c-14 -4 -26 -15 -28 -24 -5 -24 11 -21 38 8 13 14 22 25
19 24 -2 -1 -15 -4 -29 -8z"/>
<path d="M7038 3802 c-16 -2 -28 -10 -28 -18 0 -18 21 -18 46 0 23 17 18 23
-18 18z"/>
<path d="M6640 3857 c-42 -18 -645 -318 -648 -322 -3 -3 -9 -85 -6 -85 0 0 27
13 60 29 32 17 79 39 104 50 25 11 78 38 119 60 40 23 78 38 84 34 5 -3 7 -2
4 3 -3 5 61 42 141 82 148 73 201 106 191 116 -6 7 -121 -36 -153 -57 -50 -33
-464 -226 -496 -231 -24 -5 -12 3 40 27 41 19 145 68 230 109 85 41 170 80
188 88 17 7 32 16 32 20 0 4 34 20 75 36 41 16 77 34 79 41 6 16 -10 16 -44 0z
m-475 -307 c-3 -5 -11 -10 -16 -10 -6 0 -7 5 -4 10 3 6 11 10 16 10 6 0 7 -4
4 -10z m-35 -14 c0 -3 -24 -12 -52 -22 -29 -9 -59 -21 -65 -27 -9 -7 -13 -5
-13 6 0 10 19 20 58 29 70 19 72 19 72 14z"/>
<path d="M6520 3689 c-85 -45 -240 -124 -345 -177 -154 -79 -191 -101 -193
-119 -5 -31 9 -29 97 17 186 96 463 229 534 255 l77 30 0 37 c0 21 -3 38 -7
38 -5 0 -78 -37 -163 -81z m125 21 c-3 -5 -12 -10 -18 -10 -7 0 -6 4 3 10 19
12 23 12 15 0z m-45 -20 c-8 -5 -19 -10 -25 -10 -5 0 -3 5 5 10 8 5 20 10 25
10 6 0 3 -5 -5 -10z m-43 -16 c-3 -3 -12 -4 -19 -1 -8 3 -5 6 6 6 11 1 17 -2
13 -5z"/>
<path d="M6650 3670 c-8 -5 -162 -82 -342 -171 -317 -156 -328 -162 -328 -190
0 -32 11 -37 30 -14 7 8 17 15 22 15 12 0 628 307 645 322 17 13 17 48 1 47
-7 0 -20 -4 -28 -9z"/>
<path d="M6454 3497 c-122 -62 -276 -138 -342 -170 -107 -52 -143 -79 -127
-95 3 -3 13 2 22 10 10 8 33 20 52 27 43 14 37 8 -19 -22 -33 -17 -46 -31 -53
-56 -4 -18 -6 -35 -4 -37 2 -2 61 25 133 60 71 35 145 66 164 70 25 4 31 3 20
-4 -8 -5 -25 -10 -37 -10 -13 0 -23 -4 -23 -8 0 -9 -103 -58 -108 -51 -1 2 -6
-1 -10 -7 -8 -11 -96 -54 -112 -54 -10 0 -30 -32 -30 -48 0 -5 40 11 90 36 49
25 92 43 95 40 3 -3 -37 -26 -90 -52 -52 -26 -95 -51 -95 -56 0 -13 -9 -15 90
20 47 16 76 22 65 14 -11 -8 -50 -24 -87 -35 -38 -11 -68 -24 -68 -29 0 -6 5
-10 12 -10 9 0 9 -3 0 -12 -24 -24 -11 -26 45 -7 31 10 62 18 68 16 5 -2 -20
-14 -57 -26 -38 -13 -68 -27 -68 -31 0 -5 21 -2 48 6 26 9 56 18 67 20 38 10
-8 -13 -62 -31 -48 -16 -71 -35 -41 -35 9 0 9 -3 0 -12 -14 -14 -16 -32 -3
-23 6 3 6 -6 1 -25 -10 -36 -5 -37 40 -6 19 13 63 33 98 46 34 13 65 26 67 30
6 10 -121 -28 -157 -46 -16 -8 -28 -10 -28 -5 0 16 20 24 115 48 121 31 613
273 554 273 -8 0 -29 -10 -47 -23 -17 -13 -64 -34 -104 -47 -40 -13 -105 -34
-145 -47 -39 -13 -77 -23 -85 -23 -19 1 123 54 230 86 56 16 97 34 102 45 5 9
21 20 35 23 14 4 25 11 25 17 0 7 -7 8 -17 4 -10 -4 -29 -10 -43 -12 -14 -3
-47 -12 -73 -20 -27 -8 -51 -13 -54 -10 -3 4 36 18 87 34 84 25 123 50 92 61
-7 2 -9 9 -5 15 10 17 14 96 4 101 -4 3 -18 0 -32 -7 -52 -26 -80 -37 -75 -28
3 5 31 19 61 32 38 16 55 28 55 41 0 20 -15 24 -25 8 -4 -6 -28 -20 -53 -32
-26 -12 -58 -29 -72 -38 -35 -24 -179 -81 -215 -85 -16 -3 -43 -7 -60 -10 -20
-4 -15 0 13 10 24 9 46 14 49 11 4 -3 22 4 42 16 20 13 36 21 36 20 0 -5 35 7
88 30 26 12 47 25 47 29 0 3 26 17 58 29 54 22 109 60 86 60 -15 0 -188 -80
-194 -90 -10 -15 -72 -41 -86 -36 -7 3 -16 1 -18 -3 -9 -15 -175 -73 -187 -65
-7 4 -9 3 -5 -4 4 -6 -13 -22 -41 -38 -27 -15 -63 -36 -82 -47 -19 -12 -31
-15 -27 -9 4 7 3 12 -2 12 -6 0 -12 -7 -16 -15 -6 -16 -26 -21 -26 -6 0 8 14
16 113 60 54 24 61 34 17 21 -17 -5 -28 -5 -25 0 7 12 150 70 173 70 25 0 86
26 121 50 14 10 37 21 51 24 17 5 13 0 -13 -14 -22 -12 -37 -24 -34 -26 8 -9
77 29 77 43 0 7 1 13 3 13 1 0 41 16 87 35 46 19 90 35 96 35 7 0 14 7 18 15
3 8 2 15 -2 15 -13 0 -287 -122 -302 -134 -19 -16 -79 -40 -85 -34 -5 4 289
157 345 178 19 8 38 19 42 24 10 14 10 36 1 36 -5 -1 -108 -51 -229 -113z
m226 -102 c0 -6 -76 -45 -87 -45 -4 1 12 12 37 25 50 27 50 27 50 20z m-130
-40 c-7 -8 -17 -15 -23 -15 -6 0 -2 7 9 15 25 19 30 19 14 0z m80 -20 c-14 -8
-32 -14 -40 -14 -8 0 -1 6 15 14 40 18 57 18 25 0z m-130 -5 c-8 -5 -19 -10
-25 -10 -5 0 -3 5 5 10 8 5 20 10 25 10 6 0 3 -5 -5 -10z m155 -10 c-34 -23
-94 -44 -101 -37 -3 3 17 13 45 22 28 9 53 21 56 26 4 5 12 9 18 9 7 0 -1 -9
-18 -20z m-210 -10 c-11 -5 -27 -9 -35 -9 -9 0 -8 4 5 9 11 5 27 9 35 9 9 0 8
-4 -5 -9z m90 0 c-27 -12 -43 -12 -25 0 8 5 22 9 30 9 10 0 8 -3 -5 -9z m-70
-25 c-16 -8 -41 -14 -55 -14 -21 1 -19 2 8 9 18 4 36 10 39 14 4 3 13 6 22 5
9 0 3 -7 -14 -14z m60 -4 c-6 -5 -44 -21 -85 -35 -41 -14 -101 -36 -132 -50
-63 -28 -79 -27 -25 0 25 14 225 89 247 93 2 1 0 -3 -5 -8z m135 5 c0 -2 -21
-11 -47 -20 -51 -17 -51 -8 0 11 35 13 47 15 47 9z m-323 -32 c-3 -3 -12 -4
-19 -1 -8 3 -5 6 6 6 11 1 17 -2 13 -5z m203 -3 c0 -5 -13 -11 -29 -14 -16 -4
-52 -17 -79 -30 -31 -15 -48 -19 -45 -12 2 7 34 24 71 38 79 29 82 30 82 18z
m-310 -35 c0 -2 -7 -7 -16 -10 -8 -3 -12 -2 -9 4 6 10 25 14 25 6z m378 -17
c-24 -13 -105 -39 -145 -45 -17 -3 -65 -18 -107 -34 -42 -15 -76 -25 -76 -21
0 10 110 52 160 61 25 4 68 17 95 29 54 22 105 29 73 10z m-253 -19 c-3 -5
-14 -10 -23 -9 -14 0 -13 2 3 9 27 11 27 11 20 0z m-135 -35 c-14 -8 -36 -14
-50 -14 -22 0 -21 2 10 14 47 18 71 18 40 0z m110 1 c0 -2 -31 -14 -70 -25
-38 -12 -77 -24 -87 -27 -14 -4 -14 -3 2 7 28 18 155 55 155 45z m149 -40 c-2
-2 -38 -18 -79 -35 -41 -18 -77 -36 -80 -41 -11 -18 -217 -90 -255 -89 -26 0
21 18 137 53 48 15 96 35 105 44 10 10 36 25 58 34 22 9 51 20 65 26 25 10 57
16 49 8z m-212 -12 c-3 -3 -12 -4 -19 -1 -8 3 -5 6 6 6 11 1 17 -2 13 -5z
m-52 -14 c-27 -12 -43 -12 -25 0 8 5 22 9 30 9 10 0 8 -3 -5 -9z m-71 -10
c-11 -11 -106 -41 -112 -36 -4 4 97 45 113 45 5 1 5 -3 -1 -9z m132 3 c-9 -10
-117 -43 -136 -42 -15 1 9 10 90 34 57 17 55 16 46 8z m24 -27 c0 -7 -161 -58
-166 -53 -3 2 26 16 63 29 65 24 103 33 103 24z"/>
<path d="M6328 2993 c-273 -137 -348 -179 -348 -194 0 -10 4 -19 8 -19 4 0
122 57 262 126 140 70 295 144 345 164 82 35 89 41 93 69 2 17 -1 31 -5 30 -4
0 -164 -80 -355 -176z m249 91 c-3 -3 -12 -4 -19 -1 -8 3 -5 6 6 6 11 1 17 -2
13 -5z m-477 -228 c0 -2 -7 -7 -16 -10 -8 -3 -12 -2 -9 4 6 10 25 14 25 6z"/>
<path d="M6620 3059 c-99 -51 -534 -261 -575 -277 -56 -21 -65 -30 -65 -63 0
-29 8 -36 26 -20 5 4 61 31 124 59 63 28 215 100 338 161 215 108 222 112 222
141 0 35 0 35 -70 -1z"/>
<path d="M6545 2943 c-171 -87 -544 -263 -556 -263 -5 0 -9 -9 -9 -20 0 -11 4
-20 9 -20 9 0 121 50 236 105 39 18 153 73 255 121 102 48 191 92 198 97 13
10 17 48 5 46 -5 0 -66 -30 -138 -66z"/>
<path d="M5368 3813 c7 -3 16 -2 19 1 4 3 -2 6 -13 5 -11 0 -14 -3 -6 -6z"/>
<path d="M5472 3751 c-11 -7 -10 -9 3 -14 9 -4 14 -3 10 2 -3 5 1 12 7 14 7 3
9 6 3 6 -5 0 -16 -3 -23 -8z"/>
<path d="M5506 3733 c-6 -14 -5 -15 5 -6 7 7 10 15 7 18 -3 3 -9 -2 -12 -12z"/>
<path d="M5560 3670 c0 -5 10 -15 23 -21 22 -12 22 -12 3 10 -21 23 -26 26
-26 11z"/>
<path d="M7045 3610 c-13 -6 -15 -9 -5 -9 8 0 22 4 30 9 18 12 2 12 -25 0z"/>
<path d="M7026 3568 c-10 -31 -14 -88 -7 -88 4 0 17 10 29 23 26 27 29 62 6
71 -22 8 -24 8 -28 -6z m34 -29 c0 -10 -6 -19 -14 -19 -9 0 -12 8 -8 25 5 28
22 24 22 -6z"/>
<path d="M6937 3543 c-4 -3 0 -14 8 -23 18 -20 11 -47 -16 -55 -25 -8 -24 -25
1 -18 27 7 32 18 35 64 2 37 -10 50 -28 32z"/>
<path d="M8505 3400 c3 -5 8 -10 11 -10 2 0 4 5 4 10 0 6 -5 10 -11 10 -5 0
-7 -4 -4 -10z"/>
<path d="M7055 3308 c-28 -16 -35 -28 -35 -68 l0 -34 21 20 c11 12 24 37 29
57 4 21 7 37 6 37 0 0 -10 -6 -21 -12z"/>
<path d="M6940 3263 c1 -4 7 -19 16 -33 l14 -25 -2 29 c-2 16 -9 31 -15 34 -7
2 -13 0 -13 -5z"/>
<path d="M6950 3189 c0 -5 5 -7 10 -4 6 3 10 8 10 11 0 2 -4 4 -10 4 -5 0 -10
-5 -10 -11z"/>
<path d="M7015 3178 c-50 -17 -50 -17 -14 -18 19 0 44 6 55 14 29 22 14 24
-41 4z"/>
<path d="M7010 3133 c0 -11 5 -11 20 -3 11 6 20 12 20 13 0 2 -9 3 -20 3 -11
0 -20 -6 -20 -13z"/>
<path d="M7038 3117 c-19 -7 -28 -18 -28 -33 0 -12 -3 -29 -6 -38 -3 -9 -1
-16 5 -16 6 0 11 7 11 15 0 8 11 22 24 30 13 9 26 25 29 35 6 22 4 23 -35 7z"/>
</g>
</svg>
